# xmcd
#
# Track frame offsets:
#	151
#	12261
#	36190
#	61400
#	79453
#	107751
#	154988
#	182841
#	204852
#	235105
#	255141
#
# Disc length: 4120 seconds
#
# Revision: 1
# Processed by: cddbd v1.5.2PL0 Copyright (c) Steve Scherf et al.
# Submitted via: audiograbber 1.83.01
#
DISCID=8610160b
DTITLE=Stevie Ray Vaughan - Last Farewell
DYEAR=1990
DGENRE=Blues
TTITLE0=The House is Rockin'
TTITLE1=Tightrope
TTITLE2=Look At Little Sister
TTITLE3=Let Me Love You Baby
TTITLE4=Leave My Girl Alone
TTITLE5=Riviera Paradise
TTITLE6=Wall Of Denial
TTITLE7=Superstition
TTITLE8=Cold Shot
TTITLE9=Crossfire
TTITLE10=Vodoo Chile
EXTD=
EXTT0=
EXTT1=
EXTT2=
EXTT3=
EXTT4=
EXTT5=
EXTT6=
EXTT7=
EXTT8=
EXTT9=
EXTT10=
PLAYORDER=
